<?xml version="1.0" encoding="utf-8"?>
<!-- Generator: Adobe Illustrator 28.0.0, SVG Export Plug-In . SVG Version: 6.00 Build 0)  -->
<svg version="1.1" id="Layer_1" xmlns="http://www.w3.org/2000/svg" xmlns:xlink="http://www.w3.org/1999/xlink" x="0px" y="0px"
	 viewBox="0 0 181.4 181.4" style="enable-background:new 0 0 181.4 181.4;" xml:space="preserve">
<style type="text/css">
	.st0{fill:#231F20;}
</style>
<g>
	<g>
		<g>
			<path class="st0" d="M85.5,112.1c-0.7,3.4-2,6.6-3.9,9.5c-1.9,2.9-4.6,5.2-8,7.1c-3.4,1.9-7.8,2.8-13.2,2.8
				c-6.7,0-12.3-1.7-16.8-5.2c-4.5-3.5-7.5-7.9-9-13.4l16.9-5.7c0.5,2.1,1.5,3.8,2.9,5c1.4,1.3,3.1,1.9,5.1,1.9
				c3.1,0,5.2-1.1,6.2-3.2c1-2.2,1.5-5,1.5-8.5V50h19.3v52.2C86.5,105.3,86.2,108.6,85.5,112.1z"/>
		</g>
	</g>
	<g>
		<g>
			<path class="st0" d="M88.3,83.3L116.8,51h24l-34.2,36.5l36.2,42.8h-25L88.3,93.8V83.3z"/>
		</g>
	</g>
</g>
<g>
	<path class="st0" d="M90.7,181.4c-12.2,0-24.1-2.4-35.3-7.1c-10.8-4.6-20.5-11.1-28.8-19.4c-8.3-8.3-14.9-18-19.4-28.8
		C2.4,114.8,0,102.9,0,90.7c0-12.2,2.4-24.1,7.1-35.3c4.6-10.8,11.1-20.5,19.4-28.8c8.3-8.3,18-14.9,28.8-19.4
		C66.6,2.4,78.5,0,90.7,0c12.2,0,24.1,2.4,35.3,7.1c10.8,4.6,20.5,11.1,28.8,19.4c8.3,8.3,14.9,18,19.4,28.8
		c4.7,11.2,7.1,23.1,7.1,35.3c0,12.2-2.4,24.1-7.1,35.3c-4.6,10.8-11.1,20.5-19.4,28.8c-8.3,8.3-18,14.9-28.8,19.4
		C114.8,179,102.9,181.4,90.7,181.4z M90.7,12.1c-21,0-40.7,8.2-55.6,23c-14.8,14.8-23,34.6-23,55.6s8.2,40.7,23,55.6
		c14.8,14.8,34.6,23,55.6,23c21,0,40.7-8.2,55.6-23c14.8-14.8,23-34.6,23-55.6s-8.2-40.7-23-55.6C131.4,20.3,111.7,12.1,90.7,12.1z"
		/>
</g>
</svg>
